<svg xmlns="http://www.w3.org/2000/svg" width="42" height="32" viewBox="0 0 42 32">
    <g fill="none" fill-rule="evenodd">
        <path fill="#FFA94D" d="M10.449 21.191h-.003L0 31.639h20.892V21.192z"/>
        <path fill="#F783AC" d="M20.892.3v10.446h10.446L41.784.3z"/>
        <path fill="#66D9E8" d="M20.892 10.746V21.19l10.446-10.445h-.004z"/>
        <path fill="#7950F2" d="M20.892 21.196v10.442h10.446L20.892 21.192z"/>
        <path fill="#0CA678" d="M20.899 21.196v-.004l10.445 10.446c5.766-.004 10.44-4.68 10.44-10.446 0-5.768-4.676-10.445-10.444-10.446h-.002L20.892 21.192"/>
        <path fill="#4263EB" d="M20.892 10.746V.3H10.446C4.676.3 0 4.977 0 10.746c0 5.768 4.676 10.445 10.444 10.446h10.448V10.746z"/>
    </g>
</svg>
